<svg width="262" height="51" viewBox="0 0 262 51" fill="none" xmlns="http://www.w3.org/2000/svg">
<path d="M231.052 35.9879C230.491 35.427 229.816 35.14 229.04 35.14C228.264 35.14 227.589 35.427 227.028 35.9879C226.467 36.5487 226.18 37.2242 226.18 38C226.18 38.7758 226.467 39.4513 227.028 40.0121C227.589 40.573 228.264 40.86 229.04 40.86C229.816 40.86 230.491 40.573 231.052 40.0121C231.613 39.4513 231.9 38.7758 231.9 38C231.9 37.2242 231.613 36.5487 231.052 35.9879Z" fill="#CC172C" stroke="white" stroke-width="0.6"/>
<path d="M232.685 48.5504L232.4 48.5644V48.85V49.6V49.9H232.7C234.14 49.9 235.483 49.6086 236.724 49.0234C237.99 48.475 239.089 47.72 240.016 46.7582L240.018 46.7563C242.494 44.1423 243.7 40.017 243.7 34.45V13.9V13.4806L243.303 13.6161C241.978 14.0685 240.281 14.3 238.2 14.3C237.176 14.3 236.153 14.2505 235.129 14.1514L234.8 14.1196V14.45V15.5V15.8H235.1C236.46 15.8 237.333 16.1408 237.817 16.7388C238.319 17.359 238.6 18.3915 238.6 19.9V39.25C238.6 42.1861 238.071 44.4383 237.047 46.0383L237.047 46.0383L237.045 46.0419C236.066 47.6211 234.625 48.455 232.685 48.5504ZM260.83 39.15V38.85H260.53C259.151 38.85 258.264 38.6009 257.782 38.1782C257.31 37.7311 257.03 36.8889 257.03 35.55V1V0.580554L256.633 0.716095C255.308 1.16845 253.611 1.4 251.53 1.4C250.506 1.4 249.483 1.35047 248.459 1.25139L248.13 1.21956V1.55V2.6V2.9H248.43C249.79 2.9 250.663 3.24076 251.147 3.83876C251.649 4.45904 251.93 5.49145 251.93 7V35.55C251.93 36.8889 251.65 37.7311 251.178 38.1782C250.696 38.6009 249.809 38.85 248.43 38.85H248.13V39.15V40.2V40.5133L248.443 40.4997C251.511 40.3663 253.521 40.3 254.48 40.3C255.439 40.3 257.449 40.3663 260.517 40.4997L260.83 40.5133V40.2V39.15ZM243.162 2.68787C242.475 2.00038 241.649 1.65 240.7 1.65C239.751 1.65 238.925 2.00038 238.238 2.68787C237.55 3.37536 237.2 4.20084 237.2 5.15C237.2 6.09916 237.55 6.92464 238.238 7.61213C238.925 8.29962 239.751 8.65 240.7 8.65C241.649 8.65 242.475 8.29962 243.162 7.61213C243.85 6.92464 244.2 6.09916 244.2 5.15C244.2 4.20084 243.85 3.37536 243.162 2.68787Z" fill="#022753" stroke="white" stroke-width="0.6"/>
<mask id="path-3-outside-1_1_13" maskUnits="userSpaceOnUse" x="-0.299988" y="0" width="223" height="50" fill="black">
<rect fill="white" x="-0.299988" width="223" height="50"/>
<path d="M0.700012 47.9C2.73335 47.8 4.26668 46.9167 5.30001 45.25C6.36668 43.5833 6.90001 41.2667 6.90001 38.3V18.95C6.90001 17.4167 6.61668 16.3 6.05001 15.6C5.48335 14.9 4.50001 14.55 3.10001 14.55V13.5C4.13335 13.6 5.16668 13.65 6.20001 13.65C8.30001 13.65 10.0333 13.4167 11.4 12.95V33.5C11.4 39.0333 10.2 43.0667 7.80001 45.6C6.90001 46.5333 5.83335 47.2667 4.60001 47.8C3.40001 48.3667 2.10001 48.65 0.700012 48.65V47.9ZM8.70001 1C9.56668 1 10.3167 1.31667 10.95 1.95C11.5833 2.58333 11.9 3.33333 11.9 4.2C11.9 5.06667 11.5833 5.81667 10.95 6.45C10.3167 7.08333 9.56668 7.4 8.70001 7.4C7.83335 7.4 7.08335 7.08333 6.45001 6.45C5.81668 5.81667 5.50001 5.06667 5.50001 4.2C5.50001 3.33333 5.81668 2.58333 6.45001 1.95C7.08335 1.31667 7.83335 1 8.70001 1Z"/>
<path d="M41.4813 12.8C44.8813 12.8 47.6146 13.9333 49.6813 16.2C51.7813 18.4333 52.8313 21.8333 52.8313 26.4C52.8313 30.9667 51.7813 34.3667 49.6813 36.6C47.6146 38.8333 44.8813 39.95 41.4813 39.95C38.0813 39.95 35.3313 38.8333 33.2313 36.6C31.1646 34.3667 30.1313 30.9667 30.1313 26.4C30.1313 21.8333 31.1646 18.4333 33.2313 16.2C35.3313 13.9333 38.0813 12.8 41.4813 12.8ZM41.4813 13.8C39.4813 13.8 37.8979 14.8333 36.7313 16.9C35.5646 18.9333 34.9813 22.1 34.9813 26.4C34.9813 30.7 35.5646 33.8667 36.7313 35.9C37.8979 37.9333 39.4813 38.95 41.4813 38.95C43.4813 38.95 45.0646 37.9333 46.2313 35.9C47.3979 33.8667 47.9813 30.7 47.9813 26.4C47.9813 22.1 47.3979 18.9333 46.2313 16.9C45.0646 14.8333 43.4813 13.8 41.4813 13.8Z"/>
<path d="M72.5738 12.8C74.3405 12.8 75.9238 13.2833 77.3238 14.25C78.7572 15.2167 79.8738 16.6333 80.6738 18.5C81.4738 20.3667 81.8738 22.6 81.8738 25.2C81.8738 27.7667 81.4572 30.1667 80.6238 32.4C79.8238 34.6333 78.5572 36.45 76.8238 37.85C75.1238 39.25 72.9905 39.95 70.4238 39.95C69.1572 39.95 68.0072 39.7 66.9738 39.2C65.9405 38.7 65.1405 38.05 64.5738 37.25V43.65C64.5738 45.0167 64.9738 45.95 65.7738 46.45C66.5738 46.9833 67.7738 47.25 69.3738 47.25V48.3L68.2238 48.25C65.1238 48.15 63.1072 48.1 62.1738 48.1C61.3738 48.1 59.5738 48.1667 56.7738 48.3V47.25C58.0072 47.25 58.8572 47.0167 59.3238 46.55C59.8238 46.1167 60.0738 45.3167 60.0738 44.15V18.95C60.0738 17.4167 59.7905 16.3 59.2238 15.6C58.6572 14.9 57.6738 14.55 56.2738 14.55V13.5C57.3072 13.6 58.3405 13.65 59.3738 13.65C61.4738 13.65 63.2072 13.4167 64.5738 12.95V18.25C65.3072 16.5167 66.3738 15.1833 67.7738 14.25C69.1738 13.2833 70.7738 12.8 72.5738 12.8ZM69.8738 38.8C74.6405 38.8 77.0238 34.5 77.0238 25.9C77.0238 18.1667 75.0905 14.3 71.2238 14.3C69.7238 14.3 68.3738 14.85 67.1738 15.95C65.9738 17.0167 65.1072 18.5667 64.5738 20.6V35.6C65.0405 36.5667 65.7238 37.35 66.6238 37.95C67.5238 38.5167 68.6072 38.8 69.8738 38.8Z"/>
<path d="M93.7266 13.55H101.127V14.55H93.7266V33.9C93.7266 35.4 93.9932 36.4833 94.5266 37.15C95.0932 37.8167 95.8932 38.15 96.9266 38.15C97.9599 38.15 98.8432 37.7333 99.5766 36.9C100.31 36.0667 100.927 34.7 101.427 32.8L102.427 33.05C101.593 37.65 99.4266 39.95 95.9266 39.95C94.7932 39.95 93.8599 39.8167 93.1266 39.55C92.3932 39.2833 91.7432 38.8667 91.1766 38.3C90.4432 37.5667 89.9266 36.6667 89.6266 35.6C89.3599 34.5333 89.2266 33.1 89.2266 31.3V14.55H84.4266V13.55H89.2266V5.9C91.0932 5.83333 92.5932 5.6 93.7266 5.2V13.55Z"/>
<path d="M109.052 1C109.919 1 110.669 1.31667 111.302 1.95C111.936 2.58333 112.252 3.33333 112.252 4.2C112.252 5.06667 111.936 5.81667 111.302 6.45C110.669 7.08333 109.919 7.4 109.052 7.4C108.186 7.4 107.436 7.08333 106.802 6.45C106.169 5.81667 105.852 5.06667 105.852 4.2C105.852 3.33333 106.169 2.58333 106.802 1.95C107.436 1.31667 108.186 1 109.052 1ZM111.652 34.6C111.652 35.9667 111.936 36.9167 112.502 37.45C113.069 37.95 114.052 38.2 115.452 38.2V39.25C112.386 39.1167 110.369 39.05 109.402 39.05C108.436 39.05 106.419 39.1167 103.352 39.25V38.2C104.752 38.2 105.736 37.95 106.302 37.45C106.869 36.9167 107.152 35.9667 107.152 34.6V18.95C107.152 17.4167 106.869 16.3 106.302 15.6C105.736 14.9 104.752 14.55 103.352 14.55V13.5C104.419 13.6 105.452 13.65 106.452 13.65C108.552 13.65 110.286 13.4167 111.652 12.95V34.6Z"/>
<path d="M156.401 34.6C156.401 35.9667 156.684 36.9167 157.251 37.45C157.817 37.95 158.801 38.2 160.201 38.2V39.25C157.134 39.1167 155.134 39.05 154.201 39.05C153.267 39.05 151.401 39.1167 148.601 39.25V38.2C149.834 38.2 150.684 37.95 151.151 37.45C151.651 36.9167 151.901 35.9667 151.901 34.6V20.15C151.901 18.8833 151.817 17.8667 151.651 17.1C151.517 16.3 151.167 15.65 150.601 15.15C150.067 14.65 149.234 14.4 148.101 14.4C146.834 14.4 145.684 14.8 144.651 15.6C143.617 16.4 142.801 17.5 142.201 18.9C141.634 20.2667 141.351 21.7833 141.351 23.45V34.6C141.351 35.9667 141.634 36.9167 142.201 37.45C142.767 37.95 143.751 38.2 145.151 38.2V39.25C142.084 39.1167 140.084 39.05 139.151 39.05C138.217 39.05 136.351 39.1167 133.551 39.25V38.2C134.784 38.2 135.634 37.95 136.101 37.45C136.601 36.9167 136.851 35.9667 136.851 34.6V20.15C136.851 18.8833 136.767 17.8667 136.601 17.1C136.467 16.3 136.117 15.65 135.551 15.15C135.017 14.65 134.184 14.4 133.051 14.4C131.784 14.4 130.634 14.8 129.601 15.6C128.567 16.4 127.751 17.5 127.151 18.9C126.584 20.3 126.301 21.8333 126.301 23.5V34.6C126.301 35.9667 126.534 36.9167 127.001 37.45C127.501 37.95 128.367 38.2 129.601 38.2V39.25C126.801 39.1167 124.934 39.05 124.001 39.05C123.067 39.05 121.067 39.1167 118.001 39.25V38.2C119.401 38.2 120.384 37.95 120.951 37.45C121.517 36.9167 121.801 35.9667 121.801 34.6V18.95C121.801 17.4167 121.517 16.3 120.951 15.6C120.384 14.9 119.401 14.55 118.001 14.55V13.5C119.067 13.6 120.101 13.65 121.101 13.65C123.201 13.65 124.934 13.4167 126.301 12.95V18.85C127.101 16.7833 128.234 15.2667 129.701 14.3C131.167 13.3 132.767 12.8 134.501 12.8C136.767 12.8 138.501 13.4333 139.701 14.7C140.534 15.5667 141.051 16.9 141.251 18.7C142.084 16.6 143.234 15.1 144.701 14.2C146.167 13.2667 147.784 12.8 149.551 12.8C151.817 12.8 153.551 13.4333 154.751 14.7C155.351 15.3667 155.767 16.2167 156.001 17.25C156.267 18.2833 156.401 19.6167 156.401 21.25V34.6Z"/>
<path d="M168.086 1C168.952 1 169.702 1.31667 170.336 1.95C170.969 2.58333 171.286 3.33333 171.286 4.2C171.286 5.06667 170.969 5.81667 170.336 6.45C169.702 7.08333 168.952 7.4 168.086 7.4C167.219 7.4 166.469 7.08333 165.836 6.45C165.202 5.81667 164.886 5.06667 164.886 4.2C164.886 3.33333 165.202 2.58333 165.836 1.95C166.469 1.31667 167.219 1 168.086 1ZM170.686 34.6C170.686 35.9667 170.969 36.9167 171.536 37.45C172.102 37.95 173.086 38.2 174.486 38.2V39.25C171.419 39.1167 169.402 39.05 168.436 39.05C167.469 39.05 165.452 39.1167 162.386 39.25V38.2C163.786 38.2 164.769 37.95 165.336 37.45C165.902 36.9167 166.186 35.9667 166.186 34.6V18.95C166.186 17.4167 165.902 16.3 165.336 15.6C164.769 14.9 163.786 14.55 162.386 14.55V13.5C163.452 13.6 164.486 13.65 165.486 13.65C167.586 13.65 169.319 13.4167 170.686 12.95V34.6Z"/>
<path d="M185.984 12.8C187.184 12.8 188.251 12.9833 189.184 13.35C190.117 13.7167 190.867 14.15 191.434 14.65C191.801 14.9167 192.101 15.05 192.334 15.05C192.934 15.05 193.301 14.3167 193.434 12.85H194.584C194.451 14.4833 194.384 17.3167 194.384 21.35H193.234C192.867 19.15 192.151 17.3333 191.084 15.9C190.051 14.4667 188.501 13.75 186.434 13.75C185.234 13.75 184.251 14.1 183.484 14.8C182.717 15.4667 182.334 16.4 182.334 17.6C182.334 18.7667 182.734 19.75 183.534 20.55C184.334 21.3167 185.617 22.25 187.384 23.35C187.684 23.5167 188.134 23.8 188.734 24.2C190.267 25.2 191.501 26.0833 192.434 26.85C193.367 27.6167 194.117 28.5 194.684 29.5C195.284 30.5 195.584 31.65 195.584 32.95C195.584 35.15 194.751 36.8667 193.084 38.1C191.451 39.3333 189.434 39.95 187.034 39.95C185.534 39.95 184.217 39.7167 183.084 39.25C182.351 38.8833 181.667 38.4333 181.034 37.9C180.901 37.7667 180.751 37.7 180.584 37.7C180.351 37.7 180.134 37.8667 179.934 38.2C179.767 38.5333 179.634 39 179.534 39.6H178.384C178.517 37.7 178.584 34.3667 178.584 29.6H179.734C180.101 32.7333 180.767 35.0833 181.734 36.65C182.701 38.1833 184.351 38.95 186.684 38.95C187.851 38.95 188.884 38.5667 189.784 37.8C190.684 37.0333 191.134 35.8333 191.134 34.2C191.134 32.9 190.684 31.8 189.784 30.9C188.917 30 187.484 28.9167 185.484 27.65C183.851 26.6167 182.584 25.7667 181.684 25.1C180.817 24.4333 180.084 23.6167 179.484 22.65C178.884 21.6833 178.584 20.55 178.584 19.25C178.584 17.15 179.284 15.55 180.684 14.45C182.084 13.35 183.851 12.8 185.984 12.8Z"/>
<path d="M221.097 33.25C220.497 35.0833 219.364 36.6667 217.697 38C216.064 39.3 214.081 39.95 211.747 39.95C209.381 39.95 207.331 39.4167 205.597 38.35C203.864 37.25 202.531 35.7333 201.597 33.8C200.697 31.8333 200.247 29.5667 200.247 27C200.247 24.1 200.714 21.5833 201.647 19.45C202.581 17.3167 203.897 15.6833 205.597 14.55C207.297 13.3833 209.281 12.8 211.547 12.8C214.547 12.8 216.847 13.7167 218.447 15.55C220.081 17.35 220.897 20.1 220.897 23.8H205.247C205.147 24.7333 205.097 25.8 205.097 27C205.097 29.2 205.447 31.1167 206.147 32.75C206.881 34.3833 207.831 35.65 208.997 36.55C210.197 37.4167 211.447 37.85 212.747 37.85C214.347 37.85 215.764 37.4667 216.997 36.7C218.231 35.9333 219.264 34.65 220.097 32.85L221.097 33.25ZM211.347 13.75C209.781 13.75 208.431 14.5167 207.297 16.05C206.164 17.5833 205.464 19.85 205.197 22.85H216.097C216.164 20.25 215.781 18.0833 214.947 16.35C214.147 14.6167 212.947 13.75 211.347 13.75Z"/>
</mask>
<path d="M0.700012 47.9C2.73335 47.8 4.26668 46.9167 5.30001 45.25C6.36668 43.5833 6.90001 41.2667 6.90001 38.3V18.95C6.90001 17.4167 6.61668 16.3 6.05001 15.6C5.48335 14.9 4.50001 14.55 3.10001 14.55V13.5C4.13335 13.6 5.16668 13.65 6.20001 13.65C8.30001 13.65 10.0333 13.4167 11.4 12.95V33.5C11.4 39.0333 10.2 43.0667 7.80001 45.6C6.90001 46.5333 5.83335 47.2667 4.60001 47.8C3.40001 48.3667 2.10001 48.65 0.700012 48.65V47.9ZM8.70001 1C9.56668 1 10.3167 1.31667 10.95 1.95C11.5833 2.58333 11.9 3.33333 11.9 4.2C11.9 5.06667 11.5833 5.81667 10.95 6.45C10.3167 7.08333 9.56668 7.4 8.70001 7.4C7.83335 7.4 7.08335 7.08333 6.45001 6.45C5.81668 5.81667 5.50001 5.06667 5.50001 4.2C5.50001 3.33333 5.81668 2.58333 6.45001 1.95C7.08335 1.31667 7.83335 1 8.70001 1Z" fill="#022753"/>
<path d="M41.4813 12.8C44.8813 12.8 47.6146 13.9333 49.6813 16.2C51.7813 18.4333 52.8313 21.8333 52.8313 26.4C52.8313 30.9667 51.7813 34.3667 49.6813 36.6C47.6146 38.8333 44.8813 39.95 41.4813 39.95C38.0813 39.95 35.3313 38.8333 33.2313 36.6C31.1646 34.3667 30.1313 30.9667 30.1313 26.4C30.1313 21.8333 31.1646 18.4333 33.2313 16.2C35.3313 13.9333 38.0813 12.8 41.4813 12.8ZM41.4813 13.8C39.4813 13.8 37.8979 14.8333 36.7313 16.9C35.5646 18.9333 34.9813 22.1 34.9813 26.4C34.9813 30.7 35.5646 33.8667 36.7313 35.9C37.8979 37.9333 39.4813 38.95 41.4813 38.95C43.4813 38.95 45.0646 37.9333 46.2313 35.9C47.3979 33.8667 47.9813 30.7 47.9813 26.4C47.9813 22.1 47.3979 18.9333 46.2313 16.9C45.0646 14.8333 43.4813 13.8 41.4813 13.8Z" fill="#022753"/>
<path d="M72.5738 12.8C74.3405 12.8 75.9238 13.2833 77.3238 14.25C78.7572 15.2167 79.8738 16.6333 80.6738 18.5C81.4738 20.3667 81.8738 22.6 81.8738 25.2C81.8738 27.7667 81.4572 30.1667 80.6238 32.4C79.8238 34.6333 78.5572 36.45 76.8238 37.85C75.1238 39.25 72.9905 39.95 70.4238 39.95C69.1572 39.95 68.0072 39.7 66.9738 39.2C65.9405 38.7 65.1405 38.05 64.5738 37.25V43.65C64.5738 45.0167 64.9738 45.95 65.7738 46.45C66.5738 46.9833 67.7738 47.25 69.3738 47.25V48.3L68.2238 48.25C65.1238 48.15 63.1072 48.1 62.1738 48.1C61.3738 48.1 59.5738 48.1667 56.7738 48.3V47.25C58.0072 47.25 58.8572 47.0167 59.3238 46.55C59.8238 46.1167 60.0738 45.3167 60.0738 44.15V18.95C60.0738 17.4167 59.7905 16.3 59.2238 15.6C58.6572 14.9 57.6738 14.55 56.2738 14.55V13.5C57.3072 13.6 58.3405 13.65 59.3738 13.65C61.4738 13.65 63.2072 13.4167 64.5738 12.95V18.25C65.3072 16.5167 66.3738 15.1833 67.7738 14.25C69.1738 13.2833 70.7738 12.8 72.5738 12.8ZM69.8738 38.8C74.6405 38.8 77.0238 34.5 77.0238 25.9C77.0238 18.1667 75.0905 14.3 71.2238 14.3C69.7238 14.3 68.3738 14.85 67.1738 15.95C65.9738 17.0167 65.1072 18.5667 64.5738 20.6V35.6C65.0405 36.5667 65.7238 37.35 66.6238 37.95C67.5238 38.5167 68.6072 38.8 69.8738 38.8Z" fill="#022753"/>
<path d="M93.7266 13.55H101.127V14.55H93.7266V33.9C93.7266 35.4 93.9932 36.4833 94.5266 37.15C95.0932 37.8167 95.8932 38.15 96.9266 38.15C97.9599 38.15 98.8432 37.7333 99.5766 36.9C100.31 36.0667 100.927 34.7 101.427 32.8L102.427 33.05C101.593 37.65 99.4266 39.95 95.9266 39.95C94.7932 39.95 93.8599 39.8167 93.1266 39.55C92.3932 39.2833 91.7432 38.8667 91.1766 38.3C90.4432 37.5667 89.9266 36.6667 89.6266 35.6C89.3599 34.5333 89.2266 33.1 89.2266 31.3V14.55H84.4266V13.55H89.2266V5.9C91.0932 5.83333 92.5932 5.6 93.7266 5.2V13.55Z" fill="#022753"/>
<path d="M109.052 1C109.919 1 110.669 1.31667 111.302 1.95C111.936 2.58333 112.252 3.33333 112.252 4.2C112.252 5.06667 111.936 5.81667 111.302 6.45C110.669 7.08333 109.919 7.4 109.052 7.4C108.186 7.4 107.436 7.08333 106.802 6.45C106.169 5.81667 105.852 5.06667 105.852 4.2C105.852 3.33333 106.169 2.58333 106.802 1.95C107.436 1.31667 108.186 1 109.052 1ZM111.652 34.6C111.652 35.9667 111.936 36.9167 112.502 37.45C113.069 37.95 114.052 38.2 115.452 38.2V39.25C112.386 39.1167 110.369 39.05 109.402 39.05C108.436 39.05 106.419 39.1167 103.352 39.25V38.2C104.752 38.2 105.736 37.95 106.302 37.45C106.869 36.9167 107.152 35.9667 107.152 34.6V18.95C107.152 17.4167 106.869 16.3 106.302 15.6C105.736 14.9 104.752 14.55 103.352 14.55V13.5C104.419 13.6 105.452 13.65 106.452 13.65C108.552 13.65 110.286 13.4167 111.652 12.95V34.6Z" fill="#022753"/>
<path d="M156.401 34.6C156.401 35.9667 156.684 36.9167 157.251 37.45C157.817 37.95 158.801 38.2 160.201 38.2V39.25C157.134 39.1167 155.134 39.05 154.201 39.05C153.267 39.05 151.401 39.1167 148.601 39.25V38.2C149.834 38.2 150.684 37.95 151.151 37.45C151.651 36.9167 151.901 35.9667 151.901 34.6V20.15C151.901 18.8833 151.817 17.8667 151.651 17.1C151.517 16.3 151.167 15.65 150.601 15.15C150.067 14.65 149.234 14.4 148.101 14.4C146.834 14.4 145.684 14.8 144.651 15.6C143.617 16.4 142.801 17.5 142.201 18.9C141.634 20.2667 141.351 21.7833 141.351 23.45V34.6C141.351 35.9667 141.634 36.9167 142.201 37.45C142.767 37.95 143.751 38.2 145.151 38.2V39.25C142.084 39.1167 140.084 39.05 139.151 39.05C138.217 39.05 136.351 39.1167 133.551 39.25V38.2C134.784 38.2 135.634 37.95 136.101 37.45C136.601 36.9167 136.851 35.9667 136.851 34.6V20.15C136.851 18.8833 136.767 17.8667 136.601 17.1C136.467 16.3 136.117 15.65 135.551 15.15C135.017 14.65 134.184 14.4 133.051 14.4C131.784 14.4 130.634 14.8 129.601 15.6C128.567 16.4 127.751 17.5 127.151 18.9C126.584 20.3 126.301 21.8333 126.301 23.5V34.6C126.301 35.9667 126.534 36.9167 127.001 37.45C127.501 37.95 128.367 38.2 129.601 38.2V39.25C126.801 39.1167 124.934 39.05 124.001 39.05C123.067 39.05 121.067 39.1167 118.001 39.25V38.2C119.401 38.2 120.384 37.95 120.951 37.45C121.517 36.9167 121.801 35.9667 121.801 34.6V18.95C121.801 17.4167 121.517 16.3 120.951 15.6C120.384 14.9 119.401 14.55 118.001 14.55V13.5C119.067 13.6 120.101 13.65 121.101 13.65C123.201 13.65 124.934 13.4167 126.301 12.95V18.85C127.101 16.7833 128.234 15.2667 129.701 14.3C131.167 13.3 132.767 12.8 134.501 12.8C136.767 12.8 138.501 13.4333 139.701 14.7C140.534 15.5667 141.051 16.9 141.251 18.7C142.084 16.6 143.234 15.1 144.701 14.2C146.167 13.2667 147.784 12.8 149.551 12.8C151.817 12.8 153.551 13.4333 154.751 14.7C155.351 15.3667 155.767 16.2167 156.001 17.25C156.267 18.2833 156.401 19.6167 156.401 21.25V34.6Z" fill="#022753"/>
<path d="M168.086 1C168.952 1 169.702 1.31667 170.336 1.95C170.969 2.58333 171.286 3.33333 171.286 4.2C171.286 5.06667 170.969 5.81667 170.336 6.45C169.702 7.08333 168.952 7.4 168.086 7.4C167.219 7.4 166.469 7.08333 165.836 6.45C165.202 5.81667 164.886 5.06667 164.886 4.2C164.886 3.33333 165.202 2.58333 165.836 1.95C166.469 1.31667 167.219 1 168.086 1ZM170.686 34.6C170.686 35.9667 170.969 36.9167 171.536 37.45C172.102 37.95 173.086 38.2 174.486 38.2V39.25C171.419 39.1167 169.402 39.05 168.436 39.05C167.469 39.05 165.452 39.1167 162.386 39.25V38.2C163.786 38.2 164.769 37.95 165.336 37.45C165.902 36.9167 166.186 35.9667 166.186 34.6V18.95C166.186 17.4167 165.902 16.3 165.336 15.6C164.769 14.9 163.786 14.55 162.386 14.55V13.5C163.452 13.6 164.486 13.65 165.486 13.65C167.586 13.65 169.319 13.4167 170.686 12.95V34.6Z" fill="#022753"/>
<path d="M185.984 12.8C187.184 12.8 188.251 12.9833 189.184 13.35C190.117 13.7167 190.867 14.15 191.434 14.65C191.801 14.9167 192.101 15.05 192.334 15.05C192.934 15.05 193.301 14.3167 193.434 12.85H194.584C194.451 14.4833 194.384 17.3167 194.384 21.35H193.234C192.867 19.15 192.151 17.3333 191.084 15.9C190.051 14.4667 188.501 13.75 186.434 13.75C185.234 13.75 184.251 14.1 183.484 14.8C182.717 15.4667 182.334 16.4 182.334 17.6C182.334 18.7667 182.734 19.75 183.534 20.55C184.334 21.3167 185.617 22.25 187.384 23.35C187.684 23.5167 188.134 23.8 188.734 24.2C190.267 25.2 191.501 26.0833 192.434 26.85C193.367 27.6167 194.117 28.5 194.684 29.5C195.284 30.5 195.584 31.65 195.584 32.95C195.584 35.15 194.751 36.8667 193.084 38.1C191.451 39.3333 189.434 39.95 187.034 39.95C185.534 39.95 184.217 39.7167 183.084 39.25C182.351 38.8833 181.667 38.4333 181.034 37.9C180.901 37.7667 180.751 37.7 180.584 37.7C180.351 37.7 180.134 37.8667 179.934 38.2C179.767 38.5333 179.634 39 179.534 39.6H178.384C178.517 37.7 178.584 34.3667 178.584 29.6H179.734C180.101 32.7333 180.767 35.0833 181.734 36.65C182.701 38.1833 184.351 38.95 186.684 38.95C187.851 38.95 188.884 38.5667 189.784 37.8C190.684 37.0333 191.134 35.8333 191.134 34.2C191.134 32.9 190.684 31.8 189.784 30.9C188.917 30 187.484 28.9167 185.484 27.65C183.851 26.6167 182.584 25.7667 181.684 25.1C180.817 24.4333 180.084 23.6167 179.484 22.65C178.884 21.6833 178.584 20.55 178.584 19.25C178.584 17.15 179.284 15.55 180.684 14.45C182.084 13.35 183.851 12.8 185.984 12.8Z" fill="#022753"/>
<path d="M221.097 33.25C220.497 35.0833 219.364 36.6667 217.697 38C216.064 39.3 214.081 39.95 211.747 39.95C209.381 39.95 207.331 39.4167 205.597 38.35C203.864 37.25 202.531 35.7333 201.597 33.8C200.697 31.8333 200.247 29.5667 200.247 27C200.247 24.1 200.714 21.5833 201.647 19.45C202.581 17.3167 203.897 15.6833 205.597 14.55C207.297 13.3833 209.281 12.8 211.547 12.8C214.547 12.8 216.847 13.7167 218.447 15.55C220.081 17.35 220.897 20.1 220.897 23.8H205.247C205.147 24.7333 205.097 25.8 205.097 27C205.097 29.2 205.447 31.1167 206.147 32.75C206.881 34.3833 207.831 35.65 208.997 36.55C210.197 37.4167 211.447 37.85 212.747 37.85C214.347 37.85 215.764 37.4667 216.997 36.7C218.231 35.9333 219.264 34.65 220.097 32.85L221.097 33.25ZM211.347 13.75C209.781 13.75 208.431 14.5167 207.297 16.05C206.164 17.5833 205.464 19.85 205.197 22.85H216.097C216.164 20.25 215.781 18.0833 214.947 16.35C214.147 14.6167 212.947 13.75 211.347 13.75Z" fill="#022753"/>
<path d="M0.700012 47.9C2.73335 47.8 4.26668 46.9167 5.30001 45.25C6.36668 43.5833 6.90001 41.2667 6.90001 38.3V18.95C6.90001 17.4167 6.61668 16.3 6.05001 15.6C5.48335 14.9 4.50001 14.55 3.10001 14.55V13.5C4.13335 13.6 5.16668 13.65 6.20001 13.65C8.30001 13.65 10.0333 13.4167 11.4 12.95V33.5C11.4 39.0333 10.2 43.0667 7.80001 45.6C6.90001 46.5333 5.83335 47.2667 4.60001 47.8C3.40001 48.3667 2.10001 48.65 0.700012 48.65V47.9ZM8.70001 1C9.56668 1 10.3167 1.31667 10.95 1.95C11.5833 2.58333 11.9 3.33333 11.9 4.2C11.9 5.06667 11.5833 5.81667 10.95 6.45C10.3167 7.08333 9.56668 7.4 8.70001 7.4C7.83335 7.4 7.08335 7.08333 6.45001 6.45C5.81668 5.81667 5.50001 5.06667 5.50001 4.2C5.50001 3.33333 5.81668 2.58333 6.45001 1.95C7.08335 1.31667 7.83335 1 8.70001 1Z" stroke="white" stroke-width="1.2" mask="url(#path-3-outside-1_1_13)"/>
<path d="M41.4813 12.8C44.8813 12.8 47.6146 13.9333 49.6813 16.2C51.7813 18.4333 52.8313 21.8333 52.8313 26.4C52.8313 30.9667 51.7813 34.3667 49.6813 36.6C47.6146 38.8333 44.8813 39.95 41.4813 39.95C38.0813 39.95 35.3313 38.8333 33.2313 36.6C31.1646 34.3667 30.1313 30.9667 30.1313 26.4C30.1313 21.8333 31.1646 18.4333 33.2313 16.2C35.3313 13.9333 38.0813 12.8 41.4813 12.8ZM41.4813 13.8C39.4813 13.8 37.8979 14.8333 36.7313 16.9C35.5646 18.9333 34.9813 22.1 34.9813 26.4C34.9813 30.7 35.5646 33.8667 36.7313 35.9C37.8979 37.9333 39.4813 38.95 41.4813 38.95C43.4813 38.95 45.0646 37.9333 46.2313 35.9C47.3979 33.8667 47.9813 30.7 47.9813 26.4C47.9813 22.1 47.3979 18.9333 46.2313 16.9C45.0646 14.8333 43.4813 13.8 41.4813 13.8Z" stroke="white" stroke-width="1.2" mask="url(#path-3-outside-1_1_13)"/>
<path d="M72.5738 12.8C74.3405 12.8 75.9238 13.2833 77.3238 14.25C78.7572 15.2167 79.8738 16.6333 80.6738 18.5C81.4738 20.3667 81.8738 22.6 81.8738 25.2C81.8738 27.7667 81.4572 30.1667 80.6238 32.4C79.8238 34.6333 78.5572 36.45 76.8238 37.85C75.1238 39.25 72.9905 39.95 70.4238 39.95C69.1572 39.95 68.0072 39.7 66.9738 39.2C65.9405 38.7 65.1405 38.05 64.5738 37.25V43.65C64.5738 45.0167 64.9738 45.95 65.7738 46.45C66.5738 46.9833 67.7738 47.25 69.3738 47.25V48.3L68.2238 48.25C65.1238 48.15 63.1072 48.1 62.1738 48.1C61.3738 48.1 59.5738 48.1667 56.7738 48.3V47.25C58.0072 47.25 58.8572 47.0167 59.3238 46.55C59.8238 46.1167 60.0738 45.3167 60.0738 44.15V18.95C60.0738 17.4167 59.7905 16.3 59.2238 15.6C58.6572 14.9 57.6738 14.55 56.2738 14.55V13.5C57.3072 13.6 58.3405 13.65 59.3738 13.65C61.4738 13.65 63.2072 13.4167 64.5738 12.95V18.25C65.3072 16.5167 66.3738 15.1833 67.7738 14.25C69.1738 13.2833 70.7738 12.8 72.5738 12.8ZM69.8738 38.8C74.6405 38.8 77.0238 34.5 77.0238 25.9C77.0238 18.1667 75.0905 14.3 71.2238 14.3C69.7238 14.3 68.3738 14.85 67.1738 15.95C65.9738 17.0167 65.1072 18.5667 64.5738 20.6V35.6C65.0405 36.5667 65.7238 37.35 66.6238 37.95C67.5238 38.5167 68.6072 38.8 69.8738 38.8Z" stroke="white" stroke-width="1.2" mask="url(#path-3-outside-1_1_13)"/>
<path d="M93.7266 13.55H101.127V14.55H93.7266V33.9C93.7266 35.4 93.9932 36.4833 94.5266 37.15C95.0932 37.8167 95.8932 38.15 96.9266 38.15C97.9599 38.15 98.8432 37.7333 99.5766 36.9C100.31 36.0667 100.927 34.7 101.427 32.8L102.427 33.05C101.593 37.65 99.4266 39.95 95.9266 39.95C94.7932 39.95 93.8599 39.8167 93.1266 39.55C92.3932 39.2833 91.7432 38.8667 91.1766 38.3C90.4432 37.5667 89.9266 36.6667 89.6266 35.6C89.3599 34.5333 89.2266 33.1 89.2266 31.3V14.55H84.4266V13.55H89.2266V5.9C91.0932 5.83333 92.5932 5.6 93.7266 5.2V13.55Z" stroke="white" stroke-width="1.2" mask="url(#path-3-outside-1_1_13)"/>
<path d="M109.052 1C109.919 1 110.669 1.31667 111.302 1.95C111.936 2.58333 112.252 3.33333 112.252 4.2C112.252 5.06667 111.936 5.81667 111.302 6.45C110.669 7.08333 109.919 7.4 109.052 7.4C108.186 7.4 107.436 7.08333 106.802 6.45C106.169 5.81667 105.852 5.06667 105.852 4.2C105.852 3.33333 106.169 2.58333 106.802 1.95C107.436 1.31667 108.186 1 109.052 1ZM111.652 34.6C111.652 35.9667 111.936 36.9167 112.502 37.45C113.069 37.95 114.052 38.2 115.452 38.2V39.25C112.386 39.1167 110.369 39.05 109.402 39.05C108.436 39.05 106.419 39.1167 103.352 39.25V38.2C104.752 38.2 105.736 37.95 106.302 37.45C106.869 36.9167 107.152 35.9667 107.152 34.6V18.95C107.152 17.4167 106.869 16.3 106.302 15.6C105.736 14.9 104.752 14.55 103.352 14.55V13.5C104.419 13.6 105.452 13.65 106.452 13.65C108.552 13.65 110.286 13.4167 111.652 12.95V34.6Z" stroke="white" stroke-width="1.2" mask="url(#path-3-outside-1_1_13)"/>
<path d="M156.401 34.6C156.401 35.9667 156.684 36.9167 157.251 37.45C157.817 37.95 158.801 38.2 160.201 38.2V39.25C157.134 39.1167 155.134 39.05 154.201 39.05C153.267 39.05 151.401 39.1167 148.601 39.25V38.2C149.834 38.2 150.684 37.95 151.151 37.45C151.651 36.9167 151.901 35.9667 151.901 34.6V20.15C151.901 18.8833 151.817 17.8667 151.651 17.1C151.517 16.3 151.167 15.65 150.601 15.15C150.067 14.65 149.234 14.4 148.101 14.4C146.834 14.4 145.684 14.8 144.651 15.6C143.617 16.4 142.801 17.5 142.201 18.9C141.634 20.2667 141.351 21.7833 141.351 23.45V34.6C141.351 35.9667 141.634 36.9167 142.201 37.45C142.767 37.95 143.751 38.2 145.151 38.2V39.25C142.084 39.1167 140.084 39.05 139.151 39.05C138.217 39.05 136.351 39.1167 133.551 39.25V38.2C134.784 38.2 135.634 37.95 136.101 37.45C136.601 36.9167 136.851 35.9667 136.851 34.6V20.15C136.851 18.8833 136.767 17.8667 136.601 17.1C136.467 16.3 136.117 15.65 135.551 15.15C135.017 14.65 134.184 14.4 133.051 14.4C131.784 14.4 130.634 14.8 129.601 15.6C128.567 16.4 127.751 17.5 127.151 18.9C126.584 20.3 126.301 21.8333 126.301 23.5V34.6C126.301 35.9667 126.534 36.9167 127.001 37.45C127.501 37.95 128.367 38.2 129.601 38.2V39.25C126.801 39.1167 124.934 39.05 124.001 39.05C123.067 39.05 121.067 39.1167 118.001 39.25V38.2C119.401 38.2 120.384 37.95 120.951 37.45C121.517 36.9167 121.801 35.9667 121.801 34.6V18.95C121.801 17.4167 121.517 16.3 120.951 15.6C120.384 14.9 119.401 14.55 118.001 14.55V13.5C119.067 13.6 120.101 13.65 121.101 13.65C123.201 13.65 124.934 13.4167 126.301 12.95V18.85C127.101 16.7833 128.234 15.2667 129.701 14.3C131.167 13.3 132.767 12.8 134.501 12.8C136.767 12.8 138.501 13.4333 139.701 14.7C140.534 15.5667 141.051 16.9 141.251 18.7C142.084 16.6 143.234 15.1 144.701 14.2C146.167 13.2667 147.784 12.8 149.551 12.8C151.817 12.8 153.551 13.4333 154.751 14.7C155.351 15.3667 155.767 16.2167 156.001 17.25C156.267 18.2833 156.401 19.6167 156.401 21.25V34.6Z" stroke="white" stroke-width="1.2" mask="url(#path-3-outside-1_1_13)"/>
<path d="M168.086 1C168.952 1 169.702 1.31667 170.336 1.95C170.969 2.58333 171.286 3.33333 171.286 4.2C171.286 5.06667 170.969 5.81667 170.336 6.45C169.702 7.08333 168.952 7.4 168.086 7.4C167.219 7.4 166.469 7.08333 165.836 6.45C165.202 5.81667 164.886 5.06667 164.886 4.2C164.886 3.33333 165.202 2.58333 165.836 1.95C166.469 1.31667 167.219 1 168.086 1ZM170.686 34.6C170.686 35.9667 170.969 36.9167 171.536 37.45C172.102 37.95 173.086 38.2 174.486 38.2V39.25C171.419 39.1167 169.402 39.05 168.436 39.05C167.469 39.05 165.452 39.1167 162.386 39.25V38.2C163.786 38.2 164.769 37.95 165.336 37.45C165.902 36.9167 166.186 35.9667 166.186 34.6V18.95C166.186 17.4167 165.902 16.3 165.336 15.6C164.769 14.9 163.786 14.55 162.386 14.55V13.5C163.452 13.6 164.486 13.65 165.486 13.65C167.586 13.65 169.319 13.4167 170.686 12.95V34.6Z" stroke="white" stroke-width="1.2" mask="url(#path-3-outside-1_1_13)"/>
<path d="M185.984 12.8C187.184 12.8 188.251 12.9833 189.184 13.35C190.117 13.7167 190.867 14.15 191.434 14.65C191.801 14.9167 192.101 15.05 192.334 15.05C192.934 15.05 193.301 14.3167 193.434 12.85H194.584C194.451 14.4833 194.384 17.3167 194.384 21.35H193.234C192.867 19.15 192.151 17.3333 191.084 15.9C190.051 14.4667 188.501 13.75 186.434 13.75C185.234 13.75 184.251 14.1 183.484 14.8C182.717 15.4667 182.334 16.4 182.334 17.6C182.334 18.7667 182.734 19.75 183.534 20.55C184.334 21.3167 185.617 22.25 187.384 23.35C187.684 23.5167 188.134 23.8 188.734 24.2C190.267 25.2 191.501 26.0833 192.434 26.85C193.367 27.6167 194.117 28.5 194.684 29.5C195.284 30.5 195.584 31.65 195.584 32.95C195.584 35.15 194.751 36.8667 193.084 38.1C191.451 39.3333 189.434 39.95 187.034 39.95C185.534 39.95 184.217 39.7167 183.084 39.25C182.351 38.8833 181.667 38.4333 181.034 37.9C180.901 37.7667 180.751 37.7 180.584 37.7C180.351 37.7 180.134 37.8667 179.934 38.2C179.767 38.5333 179.634 39 179.534 39.6H178.384C178.517 37.7 178.584 34.3667 178.584 29.6H179.734C180.101 32.7333 180.767 35.0833 181.734 36.65C182.701 38.1833 184.351 38.95 186.684 38.95C187.851 38.95 188.884 38.5667 189.784 37.8C190.684 37.0333 191.134 35.8333 191.134 34.2C191.134 32.9 190.684 31.8 189.784 30.9C188.917 30 187.484 28.9167 185.484 27.65C183.851 26.6167 182.584 25.7667 181.684 25.1C180.817 24.4333 180.084 23.6167 179.484 22.65C178.884 21.6833 178.584 20.55 178.584 19.25C178.584 17.15 179.284 15.55 180.684 14.45C182.084 13.35 183.851 12.8 185.984 12.8Z" stroke="white" stroke-width="1.2" mask="url(#path-3-outside-1_1_13)"/>
<path d="M221.097 33.25C220.497 35.0833 219.364 36.6667 217.697 38C216.064 39.3 214.081 39.95 211.747 39.95C209.381 39.95 207.331 39.4167 205.597 38.35C203.864 37.25 202.531 35.7333 201.597 33.8C200.697 31.8333 200.247 29.5667 200.247 27C200.247 24.1 200.714 21.5833 201.647 19.45C202.581 17.3167 203.897 15.6833 205.597 14.55C207.297 13.3833 209.281 12.8 211.547 12.8C214.547 12.8 216.847 13.7167 218.447 15.55C220.081 17.35 220.897 20.1 220.897 23.8H205.247C205.147 24.7333 205.097 25.8 205.097 27C205.097 29.2 205.447 31.1167 206.147 32.75C206.881 34.3833 207.831 35.65 208.997 36.55C210.197 37.4167 211.447 37.85 212.747 37.85C214.347 37.85 215.764 37.4667 216.997 36.7C218.231 35.9333 219.264 34.65 220.097 32.85L221.097 33.25ZM211.347 13.75C209.781 13.75 208.431 14.5167 207.297 16.05C206.164 17.5833 205.464 19.85 205.197 22.85H216.097C216.164 20.25 215.781 18.0833 214.947 16.35C214.147 14.6167 212.947 13.75 211.347 13.75Z" stroke="white" stroke-width="1.2" mask="url(#path-3-outside-1_1_13)"/>
<path d="M23.2 7.95C23.8083 7.95 24.364 7.79956 24.861 7.49937C24.8867 7.66665 24.9 7.84994 24.9 8.05C24.9 8.93129 24.5521 9.81616 23.8182 10.7096L23.8181 10.7095L23.8141 10.7147C23.1104 11.6103 22.2674 12.2609 21.284 12.6733L20.9883 12.7974L21.1317 13.0842L21.5817 13.9842L21.7117 14.2442L21.9757 14.1224C23.7496 13.3037 25.0826 12.2028 25.953 10.8113C26.8519 9.42744 27.3 7.87086 27.3 6.15C27.3 4.80625 27.0068 3.64802 26.4041 2.69058C25.6805 1.53296 24.5991 0.95 23.2 0.95C22.2209 0.95 21.3778 1.29797 20.6879 1.98787C20.0279 2.64781 19.7 3.47579 19.7 4.45C19.7 5.48418 20.0236 6.34789 20.6879 7.01214L20.6938 7.01802L20.7 7.02358C21.3917 7.64254 22.2309 7.95 23.2 7.95Z" fill="#CC172C" stroke="white" stroke-width="0.6"/>
</svg>
