<svg width="222" height="49" viewBox="0 0 222 49" fill="none" xmlns="http://www.w3.org/2000/svg">
<mask id="path-1-outside-1_1_13" maskUnits="userSpaceOnUse" x="-0.299988" y="-0.25" width="223" height="50" fill="black">
<rect fill="white" x="-0.299988" y="-0.25" width="223" height="50"/>
<path d="M0.700012 47.65C2.73335 47.55 4.26668 46.6667 5.30001 45C6.36668 43.3333 6.90001 41.0167 6.90001 38.05V18.7C6.90001 17.1667 6.61668 16.05 6.05001 15.35C5.48335 14.65 4.50001 14.3 3.10001 14.3V13.25C4.13335 13.35 5.16668 13.4 6.20001 13.4C8.30001 13.4 10.0333 13.1667 11.4 12.7V33.25C11.4 38.7833 10.2 42.8167 7.80001 45.35C6.90001 46.2833 5.83335 47.0167 4.60001 47.55C3.40001 48.1167 2.10001 48.4 0.700012 48.4V47.65ZM8.70001 0.75C9.56668 0.75 10.3167 1.06667 10.95 1.7C11.5833 2.33333 11.9 3.08333 11.9 3.95C11.9 4.81667 11.5833 5.56667 10.95 6.2C10.3167 6.83333 9.56668 7.15 8.70001 7.15C7.83335 7.15 7.08335 6.83333 6.45001 6.2C5.81668 5.56667 5.50001 4.81667 5.50001 3.95C5.50001 3.08333 5.81668 2.33333 6.45001 1.7C7.08335 1.06667 7.83335 0.75 8.70001 0.75Z"/>
<path d="M41.4813 12.55C44.8813 12.55 47.6146 13.6833 49.6813 15.95C51.7813 18.1833 52.8313 21.5833 52.8313 26.15C52.8313 30.7167 51.7813 34.1167 49.6813 36.35C47.6146 38.5833 44.8813 39.7 41.4813 39.7C38.0813 39.7 35.3313 38.5833 33.2313 36.35C31.1646 34.1167 30.1313 30.7167 30.1313 26.15C30.1313 21.5833 31.1646 18.1833 33.2313 15.95C35.3313 13.6833 38.0813 12.55 41.4813 12.55ZM41.4813 13.55C39.4813 13.55 37.8979 14.5833 36.7313 16.65C35.5646 18.6833 34.9813 21.85 34.9813 26.15C34.9813 30.45 35.5646 33.6167 36.7313 35.65C37.8979 37.6833 39.4813 38.7 41.4813 38.7C43.4813 38.7 45.0646 37.6833 46.2313 35.65C47.3979 33.6167 47.9813 30.45 47.9813 26.15C47.9813 21.85 47.3979 18.6833 46.2313 16.65C45.0646 14.5833 43.4813 13.55 41.4813 13.55Z"/>
<path d="M72.5738 12.55C74.3405 12.55 75.9238 13.0333 77.3238 14C78.7572 14.9667 79.8738 16.3833 80.6738 18.25C81.4738 20.1167 81.8738 22.35 81.8738 24.95C81.8738 27.5167 81.4572 29.9167 80.6238 32.15C79.8238 34.3833 78.5572 36.2 76.8238 37.6C75.1238 39 72.9905 39.7 70.4238 39.7C69.1572 39.7 68.0072 39.45 66.9738 38.95C65.9405 38.45 65.1405 37.8 64.5738 37V43.4C64.5738 44.7667 64.9738 45.7 65.7738 46.2C66.5738 46.7333 67.7738 47 69.3738 47V48.05L68.2238 48C65.1238 47.9 63.1072 47.85 62.1738 47.85C61.3738 47.85 59.5738 47.9167 56.7738 48.05V47C58.0072 47 58.8572 46.7667 59.3238 46.3C59.8238 45.8667 60.0738 45.0667 60.0738 43.9V18.7C60.0738 17.1667 59.7905 16.05 59.2238 15.35C58.6572 14.65 57.6738 14.3 56.2738 14.3V13.25C57.3072 13.35 58.3405 13.4 59.3738 13.4C61.4738 13.4 63.2072 13.1667 64.5738 12.7V18C65.3072 16.2667 66.3738 14.9333 67.7738 14C69.1738 13.0333 70.7738 12.55 72.5738 12.55ZM69.8738 38.55C74.6405 38.55 77.0238 34.25 77.0238 25.65C77.0238 17.9167 75.0905 14.05 71.2238 14.05C69.7238 14.05 68.3738 14.6 67.1738 15.7C65.9738 16.7667 65.1072 18.3167 64.5738 20.35V35.35C65.0405 36.3167 65.7238 37.1 66.6238 37.7C67.5238 38.2667 68.6072 38.55 69.8738 38.55Z"/>
<path d="M93.7266 13.3H101.127V14.3H93.7266V33.65C93.7266 35.15 93.9932 36.2333 94.5266 36.9C95.0932 37.5667 95.8932 37.9 96.9266 37.9C97.9599 37.9 98.8432 37.4833 99.5766 36.65C100.31 35.8167 100.927 34.45 101.427 32.55L102.427 32.8C101.593 37.4 99.4266 39.7 95.9266 39.7C94.7932 39.7 93.8599 39.5667 93.1266 39.3C92.3932 39.0333 91.7432 38.6167 91.1766 38.05C90.4432 37.3167 89.9266 36.4167 89.6266 35.35C89.3599 34.2833 89.2266 32.85 89.2266 31.05V14.3H84.4266V13.3H89.2266V5.65C91.0932 5.58333 92.5932 5.35 93.7266 4.95V13.3Z"/>
<path d="M109.052 0.75C109.919 0.75 110.669 1.06667 111.302 1.7C111.936 2.33333 112.252 3.08333 112.252 3.95C112.252 4.81667 111.936 5.56667 111.302 6.2C110.669 6.83333 109.919 7.15 109.052 7.15C108.186 7.15 107.436 6.83333 106.802 6.2C106.169 5.56667 105.852 4.81667 105.852 3.95C105.852 3.08333 106.169 2.33333 106.802 1.7C107.436 1.06667 108.186 0.75 109.052 0.75ZM111.652 34.35C111.652 35.7167 111.936 36.6667 112.502 37.2C113.069 37.7 114.052 37.95 115.452 37.95V39C112.386 38.8667 110.369 38.8 109.402 38.8C108.436 38.8 106.419 38.8667 103.352 39V37.95C104.752 37.95 105.736 37.7 106.302 37.2C106.869 36.6667 107.152 35.7167 107.152 34.35V18.7C107.152 17.1667 106.869 16.05 106.302 15.35C105.736 14.65 104.752 14.3 103.352 14.3V13.25C104.419 13.35 105.452 13.4 106.452 13.4C108.552 13.4 110.286 13.1667 111.652 12.7V34.35Z"/>
<path d="M156.401 34.35C156.401 35.7167 156.684 36.6667 157.251 37.2C157.817 37.7 158.801 37.95 160.201 37.95V39C157.134 38.8667 155.134 38.8 154.201 38.8C153.267 38.8 151.401 38.8667 148.601 39V37.95C149.834 37.95 150.684 37.7 151.151 37.2C151.651 36.6667 151.901 35.7167 151.901 34.35V19.9C151.901 18.6333 151.817 17.6167 151.651 16.85C151.517 16.05 151.167 15.4 150.601 14.9C150.067 14.4 149.234 14.15 148.101 14.15C146.834 14.15 145.684 14.55 144.651 15.35C143.617 16.15 142.801 17.25 142.201 18.65C141.634 20.0167 141.351 21.5333 141.351 23.2V34.35C141.351 35.7167 141.634 36.6667 142.201 37.2C142.767 37.7 143.751 37.95 145.151 37.95V39C142.084 38.8667 140.084 38.8 139.151 38.8C138.217 38.8 136.351 38.8667 133.551 39V37.95C134.784 37.95 135.634 37.7 136.101 37.2C136.601 36.6667 136.851 35.7167 136.851 34.35V19.9C136.851 18.6333 136.767 17.6167 136.601 16.85C136.467 16.05 136.117 15.4 135.551 14.9C135.017 14.4 134.184 14.15 133.051 14.15C131.784 14.15 130.634 14.55 129.601 15.35C128.567 16.15 127.751 17.25 127.151 18.65C126.584 20.05 126.301 21.5833 126.301 23.25V34.35C126.301 35.7167 126.534 36.6667 127.001 37.2C127.501 37.7 128.367 37.95 129.601 37.95V39C126.801 38.8667 124.934 38.8 124.001 38.8C123.067 38.8 121.067 38.8667 118.001 39V37.95C119.401 37.95 120.384 37.7 120.951 37.2C121.517 36.6667 121.801 35.7167 121.801 34.35V18.7C121.801 17.1667 121.517 16.05 120.951 15.35C120.384 14.65 119.401 14.3 118.001 14.3V13.25C119.067 13.35 120.101 13.4 121.101 13.4C123.201 13.4 124.934 13.1667 126.301 12.7V18.6C127.101 16.5333 128.234 15.0167 129.701 14.05C131.167 13.05 132.767 12.55 134.501 12.55C136.767 12.55 138.501 13.1833 139.701 14.45C140.534 15.3167 141.051 16.65 141.251 18.45C142.084 16.35 143.234 14.85 144.701 13.95C146.167 13.0167 147.784 12.55 149.551 12.55C151.817 12.55 153.551 13.1833 154.751 14.45C155.351 15.1167 155.767 15.9667 156.001 17C156.267 18.0333 156.401 19.3667 156.401 21V34.35Z"/>
<path d="M168.086 0.75C168.952 0.75 169.702 1.06667 170.336 1.7C170.969 2.33333 171.286 3.08333 171.286 3.95C171.286 4.81667 170.969 5.56667 170.336 6.2C169.702 6.83333 168.952 7.15 168.086 7.15C167.219 7.15 166.469 6.83333 165.836 6.2C165.202 5.56667 164.886 4.81667 164.886 3.95C164.886 3.08333 165.202 2.33333 165.836 1.7C166.469 1.06667 167.219 0.75 168.086 0.75ZM170.686 34.35C170.686 35.7167 170.969 36.6667 171.536 37.2C172.102 37.7 173.086 37.95 174.486 37.95V39C171.419 38.8667 169.402 38.8 168.436 38.8C167.469 38.8 165.452 38.8667 162.386 39V37.95C163.786 37.95 164.769 37.7 165.336 37.2C165.902 36.6667 166.186 35.7167 166.186 34.35V18.7C166.186 17.1667 165.902 16.05 165.336 15.35C164.769 14.65 163.786 14.3 162.386 14.3V13.25C163.452 13.35 164.486 13.4 165.486 13.4C167.586 13.4 169.319 13.1667 170.686 12.7V34.35Z"/>
<path d="M185.984 12.55C187.184 12.55 188.251 12.7333 189.184 13.1C190.117 13.4667 190.867 13.9 191.434 14.4C191.801 14.6667 192.101 14.8 192.334 14.8C192.934 14.8 193.301 14.0667 193.434 12.6H194.584C194.451 14.2333 194.384 17.0667 194.384 21.1H193.234C192.867 18.9 192.151 17.0833 191.084 15.65C190.051 14.2167 188.501 13.5 186.434 13.5C185.234 13.5 184.251 13.85 183.484 14.55C182.717 15.2167 182.334 16.15 182.334 17.35C182.334 18.5167 182.734 19.5 183.534 20.3C184.334 21.0667 185.617 22 187.384 23.1C187.684 23.2667 188.134 23.55 188.734 23.95C190.267 24.95 191.501 25.8333 192.434 26.6C193.367 27.3667 194.117 28.25 194.684 29.25C195.284 30.25 195.584 31.4 195.584 32.7C195.584 34.9 194.751 36.6167 193.084 37.85C191.451 39.0833 189.434 39.7 187.034 39.7C185.534 39.7 184.217 39.4667 183.084 39C182.351 38.6333 181.667 38.1833 181.034 37.65C180.901 37.5167 180.751 37.45 180.584 37.45C180.351 37.45 180.134 37.6167 179.934 37.95C179.767 38.2833 179.634 38.75 179.534 39.35H178.384C178.517 37.45 178.584 34.1167 178.584 29.35H179.734C180.101 32.4833 180.767 34.8333 181.734 36.4C182.701 37.9333 184.351 38.7 186.684 38.7C187.851 38.7 188.884 38.3167 189.784 37.55C190.684 36.7833 191.134 35.5833 191.134 33.95C191.134 32.65 190.684 31.55 189.784 30.65C188.917 29.75 187.484 28.6667 185.484 27.4C183.851 26.3667 182.584 25.5167 181.684 24.85C180.817 24.1833 180.084 23.3667 179.484 22.4C178.884 21.4333 178.584 20.3 178.584 19C178.584 16.9 179.284 15.3 180.684 14.2C182.084 13.1 183.851 12.55 185.984 12.55Z"/>
<path d="M221.097 33C220.497 34.8333 219.364 36.4167 217.697 37.75C216.064 39.05 214.081 39.7 211.747 39.7C209.381 39.7 207.331 39.1667 205.597 38.1C203.864 37 202.531 35.4833 201.597 33.55C200.697 31.5833 200.247 29.3167 200.247 26.75C200.247 23.85 200.714 21.3333 201.647 19.2C202.581 17.0667 203.897 15.4333 205.597 14.3C207.297 13.1333 209.281 12.55 211.547 12.55C214.547 12.55 216.847 13.4667 218.447 15.3C220.081 17.1 220.897 19.85 220.897 23.55H205.247C205.147 24.4833 205.097 25.55 205.097 26.75C205.097 28.95 205.447 30.8667 206.147 32.5C206.881 34.1333 207.831 35.4 208.997 36.3C210.197 37.1667 211.447 37.6 212.747 37.6C214.347 37.6 215.764 37.2167 216.997 36.45C218.231 35.6833 219.264 34.4 220.097 32.6L221.097 33ZM211.347 13.5C209.781 13.5 208.431 14.2667 207.297 15.8C206.164 17.3333 205.464 19.6 205.197 22.6H216.097C216.164 20 215.781 17.8333 214.947 16.1C214.147 14.3667 212.947 13.5 211.347 13.5Z"/>
</mask>
<path d="M0.700012 47.65C2.73335 47.55 4.26668 46.6667 5.30001 45C6.36668 43.3333 6.90001 41.0167 6.90001 38.05V18.7C6.90001 17.1667 6.61668 16.05 6.05001 15.35C5.48335 14.65 4.50001 14.3 3.10001 14.3V13.25C4.13335 13.35 5.16668 13.4 6.20001 13.4C8.30001 13.4 10.0333 13.1667 11.4 12.7V33.25C11.4 38.7833 10.2 42.8167 7.80001 45.35C6.90001 46.2833 5.83335 47.0167 4.60001 47.55C3.40001 48.1167 2.10001 48.4 0.700012 48.4V47.65ZM8.70001 0.75C9.56668 0.75 10.3167 1.06667 10.95 1.7C11.5833 2.33333 11.9 3.08333 11.9 3.95C11.9 4.81667 11.5833 5.56667 10.95 6.2C10.3167 6.83333 9.56668 7.15 8.70001 7.15C7.83335 7.15 7.08335 6.83333 6.45001 6.2C5.81668 5.56667 5.50001 4.81667 5.50001 3.95C5.50001 3.08333 5.81668 2.33333 6.45001 1.7C7.08335 1.06667 7.83335 0.75 8.70001 0.75Z" fill="#022753"/>
<path d="M41.4813 12.55C44.8813 12.55 47.6146 13.6833 49.6813 15.95C51.7813 18.1833 52.8313 21.5833 52.8313 26.15C52.8313 30.7167 51.7813 34.1167 49.6813 36.35C47.6146 38.5833 44.8813 39.7 41.4813 39.7C38.0813 39.7 35.3313 38.5833 33.2313 36.35C31.1646 34.1167 30.1313 30.7167 30.1313 26.15C30.1313 21.5833 31.1646 18.1833 33.2313 15.95C35.3313 13.6833 38.0813 12.55 41.4813 12.55ZM41.4813 13.55C39.4813 13.55 37.8979 14.5833 36.7313 16.65C35.5646 18.6833 34.9813 21.85 34.9813 26.15C34.9813 30.45 35.5646 33.6167 36.7313 35.65C37.8979 37.6833 39.4813 38.7 41.4813 38.7C43.4813 38.7 45.0646 37.6833 46.2313 35.65C47.3979 33.6167 47.9813 30.45 47.9813 26.15C47.9813 21.85 47.3979 18.6833 46.2313 16.65C45.0646 14.5833 43.4813 13.55 41.4813 13.55Z" fill="#022753"/>
<path d="M72.5738 12.55C74.3405 12.55 75.9238 13.0333 77.3238 14C78.7572 14.9667 79.8738 16.3833 80.6738 18.25C81.4738 20.1167 81.8738 22.35 81.8738 24.95C81.8738 27.5167 81.4572 29.9167 80.6238 32.15C79.8238 34.3833 78.5572 36.2 76.8238 37.6C75.1238 39 72.9905 39.7 70.4238 39.7C69.1572 39.7 68.0072 39.45 66.9738 38.95C65.9405 38.45 65.1405 37.8 64.5738 37V43.4C64.5738 44.7667 64.9738 45.7 65.7738 46.2C66.5738 46.7333 67.7738 47 69.3738 47V48.05L68.2238 48C65.1238 47.9 63.1072 47.85 62.1738 47.85C61.3738 47.85 59.5738 47.9167 56.7738 48.05V47C58.0072 47 58.8572 46.7667 59.3238 46.3C59.8238 45.8667 60.0738 45.0667 60.0738 43.9V18.7C60.0738 17.1667 59.7905 16.05 59.2238 15.35C58.6572 14.65 57.6738 14.3 56.2738 14.3V13.25C57.3072 13.35 58.3405 13.4 59.3738 13.4C61.4738 13.4 63.2072 13.1667 64.5738 12.7V18C65.3072 16.2667 66.3738 14.9333 67.7738 14C69.1738 13.0333 70.7738 12.55 72.5738 12.55ZM69.8738 38.55C74.6405 38.55 77.0238 34.25 77.0238 25.65C77.0238 17.9167 75.0905 14.05 71.2238 14.05C69.7238 14.05 68.3738 14.6 67.1738 15.7C65.9738 16.7667 65.1072 18.3167 64.5738 20.35V35.35C65.0405 36.3167 65.7238 37.1 66.6238 37.7C67.5238 38.2667 68.6072 38.55 69.8738 38.55Z" fill="#022753"/>
<path d="M93.7266 13.3H101.127V14.3H93.7266V33.65C93.7266 35.15 93.9932 36.2333 94.5266 36.9C95.0932 37.5667 95.8932 37.9 96.9266 37.9C97.9599 37.9 98.8432 37.4833 99.5766 36.65C100.31 35.8167 100.927 34.45 101.427 32.55L102.427 32.8C101.593 37.4 99.4266 39.7 95.9266 39.7C94.7932 39.7 93.8599 39.5667 93.1266 39.3C92.3932 39.0333 91.7432 38.6167 91.1766 38.05C90.4432 37.3167 89.9266 36.4167 89.6266 35.35C89.3599 34.2833 89.2266 32.85 89.2266 31.05V14.3H84.4266V13.3H89.2266V5.65C91.0932 5.58333 92.5932 5.35 93.7266 4.95V13.3Z" fill="#022753"/>
<path d="M109.052 0.75C109.919 0.75 110.669 1.06667 111.302 1.7C111.936 2.33333 112.252 3.08333 112.252 3.95C112.252 4.81667 111.936 5.56667 111.302 6.2C110.669 6.83333 109.919 7.15 109.052 7.15C108.186 7.15 107.436 6.83333 106.802 6.2C106.169 5.56667 105.852 4.81667 105.852 3.95C105.852 3.08333 106.169 2.33333 106.802 1.7C107.436 1.06667 108.186 0.75 109.052 0.75ZM111.652 34.35C111.652 35.7167 111.936 36.6667 112.502 37.2C113.069 37.7 114.052 37.95 115.452 37.95V39C112.386 38.8667 110.369 38.8 109.402 38.8C108.436 38.8 106.419 38.8667 103.352 39V37.95C104.752 37.95 105.736 37.7 106.302 37.2C106.869 36.6667 107.152 35.7167 107.152 34.35V18.7C107.152 17.1667 106.869 16.05 106.302 15.35C105.736 14.65 104.752 14.3 103.352 14.3V13.25C104.419 13.35 105.452 13.4 106.452 13.4C108.552 13.4 110.286 13.1667 111.652 12.7V34.35Z" fill="#022753"/>
<path d="M156.401 34.35C156.401 35.7167 156.684 36.6667 157.251 37.2C157.817 37.7 158.801 37.95 160.201 37.95V39C157.134 38.8667 155.134 38.8 154.201 38.8C153.267 38.8 151.401 38.8667 148.601 39V37.95C149.834 37.95 150.684 37.7 151.151 37.2C151.651 36.6667 151.901 35.7167 151.901 34.35V19.9C151.901 18.6333 151.817 17.6167 151.651 16.85C151.517 16.05 151.167 15.4 150.601 14.9C150.067 14.4 149.234 14.15 148.101 14.15C146.834 14.15 145.684 14.55 144.651 15.35C143.617 16.15 142.801 17.25 142.201 18.65C141.634 20.0167 141.351 21.5333 141.351 23.2V34.35C141.351 35.7167 141.634 36.6667 142.201 37.2C142.767 37.7 143.751 37.95 145.151 37.95V39C142.084 38.8667 140.084 38.8 139.151 38.8C138.217 38.8 136.351 38.8667 133.551 39V37.95C134.784 37.95 135.634 37.7 136.101 37.2C136.601 36.6667 136.851 35.7167 136.851 34.35V19.9C136.851 18.6333 136.767 17.6167 136.601 16.85C136.467 16.05 136.117 15.4 135.551 14.9C135.017 14.4 134.184 14.15 133.051 14.15C131.784 14.15 130.634 14.55 129.601 15.35C128.567 16.15 127.751 17.25 127.151 18.65C126.584 20.05 126.301 21.5833 126.301 23.25V34.35C126.301 35.7167 126.534 36.6667 127.001 37.2C127.501 37.7 128.367 37.95 129.601 37.95V39C126.801 38.8667 124.934 38.8 124.001 38.8C123.067 38.8 121.067 38.8667 118.001 39V37.95C119.401 37.95 120.384 37.7 120.951 37.2C121.517 36.6667 121.801 35.7167 121.801 34.35V18.7C121.801 17.1667 121.517 16.05 120.951 15.35C120.384 14.65 119.401 14.3 118.001 14.3V13.25C119.067 13.35 120.101 13.4 121.101 13.4C123.201 13.4 124.934 13.1667 126.301 12.7V18.6C127.101 16.5333 128.234 15.0167 129.701 14.05C131.167 13.05 132.767 12.55 134.501 12.55C136.767 12.55 138.501 13.1833 139.701 14.45C140.534 15.3167 141.051 16.65 141.251 18.45C142.084 16.35 143.234 14.85 144.701 13.95C146.167 13.0167 147.784 12.55 149.551 12.55C151.817 12.55 153.551 13.1833 154.751 14.45C155.351 15.1167 155.767 15.9667 156.001 17C156.267 18.0333 156.401 19.3667 156.401 21V34.35Z" fill="#022753"/>
<path d="M168.086 0.75C168.952 0.75 169.702 1.06667 170.336 1.7C170.969 2.33333 171.286 3.08333 171.286 3.95C171.286 4.81667 170.969 5.56667 170.336 6.2C169.702 6.83333 168.952 7.15 168.086 7.15C167.219 7.15 166.469 6.83333 165.836 6.2C165.202 5.56667 164.886 4.81667 164.886 3.95C164.886 3.08333 165.202 2.33333 165.836 1.7C166.469 1.06667 167.219 0.75 168.086 0.75ZM170.686 34.35C170.686 35.7167 170.969 36.6667 171.536 37.2C172.102 37.7 173.086 37.95 174.486 37.95V39C171.419 38.8667 169.402 38.8 168.436 38.8C167.469 38.8 165.452 38.8667 162.386 39V37.95C163.786 37.95 164.769 37.7 165.336 37.2C165.902 36.6667 166.186 35.7167 166.186 34.35V18.7C166.186 17.1667 165.902 16.05 165.336 15.35C164.769 14.65 163.786 14.3 162.386 14.3V13.25C163.452 13.35 164.486 13.4 165.486 13.4C167.586 13.4 169.319 13.1667 170.686 12.7V34.35Z" fill="#022753"/>
<path d="M185.984 12.55C187.184 12.55 188.251 12.7333 189.184 13.1C190.117 13.4667 190.867 13.9 191.434 14.4C191.801 14.6667 192.101 14.8 192.334 14.8C192.934 14.8 193.301 14.0667 193.434 12.6H194.584C194.451 14.2333 194.384 17.0667 194.384 21.1H193.234C192.867 18.9 192.151 17.0833 191.084 15.65C190.051 14.2167 188.501 13.5 186.434 13.5C185.234 13.5 184.251 13.85 183.484 14.55C182.717 15.2167 182.334 16.15 182.334 17.35C182.334 18.5167 182.734 19.5 183.534 20.3C184.334 21.0667 185.617 22 187.384 23.1C187.684 23.2667 188.134 23.55 188.734 23.95C190.267 24.95 191.501 25.8333 192.434 26.6C193.367 27.3667 194.117 28.25 194.684 29.25C195.284 30.25 195.584 31.4 195.584 32.7C195.584 34.9 194.751 36.6167 193.084 37.85C191.451 39.0833 189.434 39.7 187.034 39.7C185.534 39.7 184.217 39.4667 183.084 39C182.351 38.6333 181.667 38.1833 181.034 37.65C180.901 37.5167 180.751 37.45 180.584 37.45C180.351 37.45 180.134 37.6167 179.934 37.95C179.767 38.2833 179.634 38.75 179.534 39.35H178.384C178.517 37.45 178.584 34.1167 178.584 29.35H179.734C180.101 32.4833 180.767 34.8333 181.734 36.4C182.701 37.9333 184.351 38.7 186.684 38.7C187.851 38.7 188.884 38.3167 189.784 37.55C190.684 36.7833 191.134 35.5833 191.134 33.95C191.134 32.65 190.684 31.55 189.784 30.65C188.917 29.75 187.484 28.6667 185.484 27.4C183.851 26.3667 182.584 25.5167 181.684 24.85C180.817 24.1833 180.084 23.3667 179.484 22.4C178.884 21.4333 178.584 20.3 178.584 19C178.584 16.9 179.284 15.3 180.684 14.2C182.084 13.1 183.851 12.55 185.984 12.55Z" fill="#022753"/>
<path d="M221.097 33C220.497 34.8333 219.364 36.4167 217.697 37.75C216.064 39.05 214.081 39.7 211.747 39.7C209.381 39.7 207.331 39.1667 205.597 38.1C203.864 37 202.531 35.4833 201.597 33.55C200.697 31.5833 200.247 29.3167 200.247 26.75C200.247 23.85 200.714 21.3333 201.647 19.2C202.581 17.0667 203.897 15.4333 205.597 14.3C207.297 13.1333 209.281 12.55 211.547 12.55C214.547 12.55 216.847 13.4667 218.447 15.3C220.081 17.1 220.897 19.85 220.897 23.55H205.247C205.147 24.4833 205.097 25.55 205.097 26.75C205.097 28.95 205.447 30.8667 206.147 32.5C206.881 34.1333 207.831 35.4 208.997 36.3C210.197 37.1667 211.447 37.6 212.747 37.6C214.347 37.6 215.764 37.2167 216.997 36.45C218.231 35.6833 219.264 34.4 220.097 32.6L221.097 33ZM211.347 13.5C209.781 13.5 208.431 14.2667 207.297 15.8C206.164 17.3333 205.464 19.6 205.197 22.6H216.097C216.164 20 215.781 17.8333 214.947 16.1C214.147 14.3667 212.947 13.5 211.347 13.5Z" fill="#022753"/>
<path d="M0.700012 47.65C2.73335 47.55 4.26668 46.6667 5.30001 45C6.36668 43.3333 6.90001 41.0167 6.90001 38.05V18.7C6.90001 17.1667 6.61668 16.05 6.05001 15.35C5.48335 14.65 4.50001 14.3 3.10001 14.3V13.25C4.13335 13.35 5.16668 13.4 6.20001 13.4C8.30001 13.4 10.0333 13.1667 11.4 12.7V33.25C11.4 38.7833 10.2 42.8167 7.80001 45.35C6.90001 46.2833 5.83335 47.0167 4.60001 47.55C3.40001 48.1167 2.10001 48.4 0.700012 48.4V47.65ZM8.70001 0.75C9.56668 0.75 10.3167 1.06667 10.95 1.7C11.5833 2.33333 11.9 3.08333 11.9 3.95C11.9 4.81667 11.5833 5.56667 10.95 6.2C10.3167 6.83333 9.56668 7.15 8.70001 7.15C7.83335 7.15 7.08335 6.83333 6.45001 6.2C5.81668 5.56667 5.50001 4.81667 5.50001 3.95C5.50001 3.08333 5.81668 2.33333 6.45001 1.7C7.08335 1.06667 7.83335 0.75 8.70001 0.75Z" stroke="white" stroke-width="1.2" mask="url(#path-1-outside-1_1_13)"/>
<path d="M41.4813 12.55C44.8813 12.55 47.6146 13.6833 49.6813 15.95C51.7813 18.1833 52.8313 21.5833 52.8313 26.15C52.8313 30.7167 51.7813 34.1167 49.6813 36.35C47.6146 38.5833 44.8813 39.7 41.4813 39.7C38.0813 39.7 35.3313 38.5833 33.2313 36.35C31.1646 34.1167 30.1313 30.7167 30.1313 26.15C30.1313 21.5833 31.1646 18.1833 33.2313 15.95C35.3313 13.6833 38.0813 12.55 41.4813 12.55ZM41.4813 13.55C39.4813 13.55 37.8979 14.5833 36.7313 16.65C35.5646 18.6833 34.9813 21.85 34.9813 26.15C34.9813 30.45 35.5646 33.6167 36.7313 35.65C37.8979 37.6833 39.4813 38.7 41.4813 38.7C43.4813 38.7 45.0646 37.6833 46.2313 35.65C47.3979 33.6167 47.9813 30.45 47.9813 26.15C47.9813 21.85 47.3979 18.6833 46.2313 16.65C45.0646 14.5833 43.4813 13.55 41.4813 13.55Z" stroke="white" stroke-width="1.2" mask="url(#path-1-outside-1_1_13)"/>
<path d="M72.5738 12.55C74.3405 12.55 75.9238 13.0333 77.3238 14C78.7572 14.9667 79.8738 16.3833 80.6738 18.25C81.4738 20.1167 81.8738 22.35 81.8738 24.95C81.8738 27.5167 81.4572 29.9167 80.6238 32.15C79.8238 34.3833 78.5572 36.2 76.8238 37.6C75.1238 39 72.9905 39.7 70.4238 39.7C69.1572 39.7 68.0072 39.45 66.9738 38.95C65.9405 38.45 65.1405 37.8 64.5738 37V43.4C64.5738 44.7667 64.9738 45.7 65.7738 46.2C66.5738 46.7333 67.7738 47 69.3738 47V48.05L68.2238 48C65.1238 47.9 63.1072 47.85 62.1738 47.85C61.3738 47.85 59.5738 47.9167 56.7738 48.05V47C58.0072 47 58.8572 46.7667 59.3238 46.3C59.8238 45.8667 60.0738 45.0667 60.0738 43.9V18.7C60.0738 17.1667 59.7905 16.05 59.2238 15.35C58.6572 14.65 57.6738 14.3 56.2738 14.3V13.25C57.3072 13.35 58.3405 13.4 59.3738 13.4C61.4738 13.4 63.2072 13.1667 64.5738 12.7V18C65.3072 16.2667 66.3738 14.9333 67.7738 14C69.1738 13.0333 70.7738 12.55 72.5738 12.55ZM69.8738 38.55C74.6405 38.55 77.0238 34.25 77.0238 25.65C77.0238 17.9167 75.0905 14.05 71.2238 14.05C69.7238 14.05 68.3738 14.6 67.1738 15.7C65.9738 16.7667 65.1072 18.3167 64.5738 20.35V35.35C65.0405 36.3167 65.7238 37.1 66.6238 37.7C67.5238 38.2667 68.6072 38.55 69.8738 38.55Z" stroke="white" stroke-width="1.2" mask="url(#path-1-outside-1_1_13)"/>
<path d="M93.7266 13.3H101.127V14.3H93.7266V33.65C93.7266 35.15 93.9932 36.2333 94.5266 36.9C95.0932 37.5667 95.8932 37.9 96.9266 37.9C97.9599 37.9 98.8432 37.4833 99.5766 36.65C100.31 35.8167 100.927 34.45 101.427 32.55L102.427 32.8C101.593 37.4 99.4266 39.7 95.9266 39.7C94.7932 39.7 93.8599 39.5667 93.1266 39.3C92.3932 39.0333 91.7432 38.6167 91.1766 38.05C90.4432 37.3167 89.9266 36.4167 89.6266 35.35C89.3599 34.2833 89.2266 32.85 89.2266 31.05V14.3H84.4266V13.3H89.2266V5.65C91.0932 5.58333 92.5932 5.35 93.7266 4.95V13.3Z" stroke="white" stroke-width="1.2" mask="url(#path-1-outside-1_1_13)"/>
<path d="M109.052 0.75C109.919 0.75 110.669 1.06667 111.302 1.7C111.936 2.33333 112.252 3.08333 112.252 3.95C112.252 4.81667 111.936 5.56667 111.302 6.2C110.669 6.83333 109.919 7.15 109.052 7.15C108.186 7.15 107.436 6.83333 106.802 6.2C106.169 5.56667 105.852 4.81667 105.852 3.95C105.852 3.08333 106.169 2.33333 106.802 1.7C107.436 1.06667 108.186 0.75 109.052 0.75ZM111.652 34.35C111.652 35.7167 111.936 36.6667 112.502 37.2C113.069 37.7 114.052 37.95 115.452 37.95V39C112.386 38.8667 110.369 38.8 109.402 38.8C108.436 38.8 106.419 38.8667 103.352 39V37.95C104.752 37.95 105.736 37.7 106.302 37.2C106.869 36.6667 107.152 35.7167 107.152 34.35V18.7C107.152 17.1667 106.869 16.05 106.302 15.35C105.736 14.65 104.752 14.3 103.352 14.3V13.25C104.419 13.35 105.452 13.4 106.452 13.4C108.552 13.4 110.286 13.1667 111.652 12.7V34.35Z" stroke="white" stroke-width="1.2" mask="url(#path-1-outside-1_1_13)"/>
<path d="M156.401 34.35C156.401 35.7167 156.684 36.6667 157.251 37.2C157.817 37.7 158.801 37.95 160.201 37.95V39C157.134 38.8667 155.134 38.8 154.201 38.8C153.267 38.8 151.401 38.8667 148.601 39V37.95C149.834 37.95 150.684 37.7 151.151 37.2C151.651 36.6667 151.901 35.7167 151.901 34.35V19.9C151.901 18.6333 151.817 17.6167 151.651 16.85C151.517 16.05 151.167 15.4 150.601 14.9C150.067 14.4 149.234 14.15 148.101 14.15C146.834 14.15 145.684 14.55 144.651 15.35C143.617 16.15 142.801 17.25 142.201 18.65C141.634 20.0167 141.351 21.5333 141.351 23.2V34.35C141.351 35.7167 141.634 36.6667 142.201 37.2C142.767 37.7 143.751 37.95 145.151 37.95V39C142.084 38.8667 140.084 38.8 139.151 38.8C138.217 38.8 136.351 38.8667 133.551 39V37.95C134.784 37.95 135.634 37.7 136.101 37.2C136.601 36.6667 136.851 35.7167 136.851 34.35V19.9C136.851 18.6333 136.767 17.6167 136.601 16.85C136.467 16.05 136.117 15.4 135.551 14.9C135.017 14.4 134.184 14.15 133.051 14.15C131.784 14.15 130.634 14.55 129.601 15.35C128.567 16.15 127.751 17.25 127.151 18.65C126.584 20.05 126.301 21.5833 126.301 23.25V34.35C126.301 35.7167 126.534 36.6667 127.001 37.2C127.501 37.7 128.367 37.95 129.601 37.95V39C126.801 38.8667 124.934 38.8 124.001 38.8C123.067 38.8 121.067 38.8667 118.001 39V37.95C119.401 37.95 120.384 37.7 120.951 37.2C121.517 36.6667 121.801 35.7167 121.801 34.35V18.7C121.801 17.1667 121.517 16.05 120.951 15.35C120.384 14.65 119.401 14.3 118.001 14.3V13.25C119.067 13.35 120.101 13.4 121.101 13.4C123.201 13.4 124.934 13.1667 126.301 12.7V18.6C127.101 16.5333 128.234 15.0167 129.701 14.05C131.167 13.05 132.767 12.55 134.501 12.55C136.767 12.55 138.501 13.1833 139.701 14.45C140.534 15.3167 141.051 16.65 141.251 18.45C142.084 16.35 143.234 14.85 144.701 13.95C146.167 13.0167 147.784 12.55 149.551 12.55C151.817 12.55 153.551 13.1833 154.751 14.45C155.351 15.1167 155.767 15.9667 156.001 17C156.267 18.0333 156.401 19.3667 156.401 21V34.35Z" stroke="white" stroke-width="1.2" mask="url(#path-1-outside-1_1_13)"/>
<path d="M168.086 0.75C168.952 0.75 169.702 1.06667 170.336 1.7C170.969 2.33333 171.286 3.08333 171.286 3.95C171.286 4.81667 170.969 5.56667 170.336 6.2C169.702 6.83333 168.952 7.15 168.086 7.15C167.219 7.15 166.469 6.83333 165.836 6.2C165.202 5.56667 164.886 4.81667 164.886 3.95C164.886 3.08333 165.202 2.33333 165.836 1.7C166.469 1.06667 167.219 0.75 168.086 0.75ZM170.686 34.35C170.686 35.7167 170.969 36.6667 171.536 37.2C172.102 37.7 173.086 37.95 174.486 37.95V39C171.419 38.8667 169.402 38.8 168.436 38.8C167.469 38.8 165.452 38.8667 162.386 39V37.95C163.786 37.95 164.769 37.7 165.336 37.2C165.902 36.6667 166.186 35.7167 166.186 34.35V18.7C166.186 17.1667 165.902 16.05 165.336 15.35C164.769 14.65 163.786 14.3 162.386 14.3V13.25C163.452 13.35 164.486 13.4 165.486 13.4C167.586 13.4 169.319 13.1667 170.686 12.7V34.35Z" stroke="white" stroke-width="1.2" mask="url(#path-1-outside-1_1_13)"/>
<path d="M185.984 12.55C187.184 12.55 188.251 12.7333 189.184 13.1C190.117 13.4667 190.867 13.9 191.434 14.4C191.801 14.6667 192.101 14.8 192.334 14.8C192.934 14.8 193.301 14.0667 193.434 12.6H194.584C194.451 14.2333 194.384 17.0667 194.384 21.1H193.234C192.867 18.9 192.151 17.0833 191.084 15.65C190.051 14.2167 188.501 13.5 186.434 13.5C185.234 13.5 184.251 13.85 183.484 14.55C182.717 15.2167 182.334 16.15 182.334 17.35C182.334 18.5167 182.734 19.5 183.534 20.3C184.334 21.0667 185.617 22 187.384 23.1C187.684 23.2667 188.134 23.55 188.734 23.95C190.267 24.95 191.501 25.8333 192.434 26.6C193.367 27.3667 194.117 28.25 194.684 29.25C195.284 30.25 195.584 31.4 195.584 32.7C195.584 34.9 194.751 36.6167 193.084 37.85C191.451 39.0833 189.434 39.7 187.034 39.7C185.534 39.7 184.217 39.4667 183.084 39C182.351 38.6333 181.667 38.1833 181.034 37.65C180.901 37.5167 180.751 37.45 180.584 37.45C180.351 37.45 180.134 37.6167 179.934 37.95C179.767 38.2833 179.634 38.75 179.534 39.35H178.384C178.517 37.45 178.584 34.1167 178.584 29.35H179.734C180.101 32.4833 180.767 34.8333 181.734 36.4C182.701 37.9333 184.351 38.7 186.684 38.7C187.851 38.7 188.884 38.3167 189.784 37.55C190.684 36.7833 191.134 35.5833 191.134 33.95C191.134 32.65 190.684 31.55 189.784 30.65C188.917 29.75 187.484 28.6667 185.484 27.4C183.851 26.3667 182.584 25.5167 181.684 24.85C180.817 24.1833 180.084 23.3667 179.484 22.4C178.884 21.4333 178.584 20.3 178.584 19C178.584 16.9 179.284 15.3 180.684 14.2C182.084 13.1 183.851 12.55 185.984 12.55Z" stroke="white" stroke-width="1.2" mask="url(#path-1-outside-1_1_13)"/>
<path d="M221.097 33C220.497 34.8333 219.364 36.4167 217.697 37.75C216.064 39.05 214.081 39.7 211.747 39.7C209.381 39.7 207.331 39.1667 205.597 38.1C203.864 37 202.531 35.4833 201.597 33.55C200.697 31.5833 200.247 29.3167 200.247 26.75C200.247 23.85 200.714 21.3333 201.647 19.2C202.581 17.0667 203.897 15.4333 205.597 14.3C207.297 13.1333 209.281 12.55 211.547 12.55C214.547 12.55 216.847 13.4667 218.447 15.3C220.081 17.1 220.897 19.85 220.897 23.55H205.247C205.147 24.4833 205.097 25.55 205.097 26.75C205.097 28.95 205.447 30.8667 206.147 32.5C206.881 34.1333 207.831 35.4 208.997 36.3C210.197 37.1667 211.447 37.6 212.747 37.6C214.347 37.6 215.764 37.2167 216.997 36.45C218.231 35.6833 219.264 34.4 220.097 32.6L221.097 33ZM211.347 13.5C209.781 13.5 208.431 14.2667 207.297 15.8C206.164 17.3333 205.464 19.6 205.197 22.6H216.097C216.164 20 215.781 17.8333 214.947 16.1C214.147 14.3667 212.947 13.5 211.347 13.5Z" stroke="white" stroke-width="1.2" mask="url(#path-1-outside-1_1_13)"/>
<path d="M23.2 7.7C23.8083 7.7 24.364 7.54956 24.861 7.24937C24.8867 7.41665 24.9 7.59994 24.9 7.8C24.9 8.68129 24.5521 9.56616 23.8182 10.4596L23.8181 10.4595L23.8141 10.4647C23.1104 11.3603 22.2674 12.0109 21.284 12.4233L20.9883 12.5474L21.1317 12.8342L21.5817 13.7342L21.7117 13.9942L21.9757 13.8724C23.7496 13.0537 25.0826 11.9528 25.953 10.5613C26.8519 9.17744 27.3 7.62086 27.3 5.9C27.3 4.55625 27.0068 3.39802 26.4041 2.44058C25.6805 1.28296 24.5991 0.7 23.2 0.7C22.2209 0.7 21.3778 1.04797 20.6879 1.73787C20.0279 2.39781 19.7 3.22579 19.7 4.2C19.7 5.23418 20.0236 6.09789 20.6879 6.76214L20.6938 6.76802L20.7 6.77358C21.3917 7.39254 22.2309 7.7 23.2 7.7Z" fill="#CC172C" stroke="white" stroke-width="0.6"/>
</svg>
